<svg xmlns="http://www.w3.org/2000/svg" width="4em" height="4em" viewBox="0 0 24 24">
  <g fill="none" fill-rule="evenodd" transform="rotate(30) translate(10 -5) scale(0.7)">
    <path d="m12.593 23.258l-.011.002l-.071.035l-.02.004l-.014-.004l-.071-.035q-.016-.005-.024.005l-.004.01l-.017.428l.005.02l.01.013l.104.074l.015.004l.012-.004l.104-.074l.012-.016l.004-.017l-.017-.427q-.004-.016-.017-.018m.265-.113l-.013.002l-.185.093l-.01.01l-.003.011l.018.43l.005.012l.008.007l.201.093q.019.005.029-.008l.004-.014l-.034-.614q-.005-.018-.02-.022m-.715.002a.02.02 0 0 0-.027.006l-.006.014l-.034.614q.001.018.017.024l.015-.002l.201-.093l.01-.008l.004-.011l.017-.43l-.003-.012l-.01-.01z"/>
    <path fill="currentColor" d="M12 2a9 9 0 0 1 9 9v8.62c0 1.83-1.966 2.987-3.565 2.099l-.363-.195c-1-.512-1.784-.68-2.889-.114l-.198.108a4 4 0 0 1-3.762.11l-.208-.11c-1.277-.73-2.166-.512-3.45.2c-1.6.89-3.565-.267-3.565-2.097V11a9 9 0 0 1 9-9M8.5 9a1.5 1.5 0 1 0 0 3a1.5 1.5 0 0 0 0-3m7 0a1.5 1.5 0 1 0 0 3a1.5 1.5 0 0 0 0-3"/>
  </g>
</svg>
